<svg width="41" height="41" viewBox="0 0 41 41" fill="none" xmlns="http://www.w3.org/2000/svg">
<g clip-path="url(#clip0_1_1800)">
<path d="M39.0869 9.89164C39.0869 9.7396 39.0532 9.58756 38.9856 9.44396C38.8504 9.15677 38.5886 8.96249 38.3014 8.90337L21.0952 0.557905C20.8165 0.422756 20.487 0.422756 20.2083 0.557905L2.83317 8.97939C2.4953 9.13988 2.27568 9.47775 2.25879 9.85786V9.8663C2.25879 9.87475 2.25879 9.8832 2.25879 9.90009V31.034C2.25879 31.4226 2.47841 31.7774 2.83317 31.9463L20.2083 40.3678C20.2167 40.3678 20.2167 40.3678 20.2252 40.3762C20.2505 40.3847 20.2759 40.3931 20.3012 40.41C20.3097 40.41 20.3181 40.4185 20.335 40.4185C20.3603 40.4269 20.3857 40.4354 20.411 40.4438C20.4195 40.4438 20.4279 40.4523 20.4364 40.4523C20.4617 40.4607 20.4955 40.4607 20.5208 40.4691C20.5293 40.4691 20.5377 40.4691 20.5462 40.4691C20.5799 40.4691 20.6222 40.4776 20.656 40.4776C20.6898 40.4776 20.732 40.4776 20.7658 40.4691C20.7742 40.4691 20.7827 40.4691 20.7911 40.4691C20.8165 40.4691 20.8502 40.4607 20.8756 40.4523C20.884 40.4523 20.8925 40.4438 20.9009 40.4438C20.9263 40.4354 20.9516 40.4269 20.9769 40.4185C20.9854 40.4185 20.9938 40.41 21.0107 40.41C21.0361 40.4016 21.0614 40.3931 21.0868 40.3762C21.0952 40.3762 21.0952 40.3762 21.1037 40.3678L38.5295 31.921C38.8758 31.752 39.1038 31.3973 39.1038 31.0087V9.91699C39.0869 9.90854 39.0869 9.90009 39.0869 9.89164ZM20.6475 2.59359L35.7167 9.90009L30.1671 12.5946L15.098 5.28813L20.6475 2.59359ZM20.6475 17.2066L5.57839 9.90009L12.7751 6.41155L27.8442 13.7181L20.6475 17.2066ZM4.28603 11.5303L19.6339 18.972V37.8337L4.28603 30.3921V11.5303ZM21.6611 37.8337V18.972L28.8663 15.475V20.4079C28.8663 20.9654 29.3224 21.4216 29.8799 21.4216C30.4374 21.4216 30.8935 20.9654 30.8935 20.4079V14.4867L37.0597 11.4965V30.3583L21.6611 37.8337Z" fill="#00B307"/>
</g>
<defs>
<clipPath id="clip0_1_1800">
<rect width="40.021" height="40.021" fill="white" transform="translate(0.670898 0.456543)"/>
</clipPath>
</defs>
</svg>
