<svg width="41" height="41" viewBox="0 0 41 41" fill="none" xmlns="http://www.w3.org/2000/svg">
<g clip-path="url(#clip0_1_1741)">
<path d="M34.3791 15.6746V14.136C34.3791 10.4534 33.0759 7.03143 30.7133 4.49228C28.2919 1.88587 24.9624 0.456543 21.3302 0.456543H20.0607C16.4285 0.456543 13.099 1.88587 10.6776 4.49228C8.31498 7.03143 7.01178 10.4534 7.01178 14.136V15.6746C4.14472 15.868 1.86621 18.2558 1.86621 21.1733V23.5779C1.86621 26.6132 4.3381 29.085 7.37331 29.085H10.4758C11.0307 29.085 11.4847 28.631 11.4847 28.0761V16.6667C11.4847 16.1118 11.0307 15.6578 10.4758 15.6578H9.02964V14.136C9.02964 7.48545 13.7716 2.47441 20.0523 2.47441H21.3218C27.6108 2.47441 32.3444 7.48545 32.3444 14.136V15.6578H30.8983C30.3434 15.6578 29.8894 16.1118 29.8894 16.6667V28.0677C29.8894 28.6226 30.3434 29.0766 30.8983 29.0766H32.3108C31.8988 34.3399 28.2751 35.559 26.5935 35.8365C26.1311 34.4156 24.7942 33.3898 23.222 33.3898H20.6996C18.749 33.3898 17.16 34.9789 17.16 36.9295C17.16 38.8801 18.749 40.4776 20.6996 40.4776H23.2304C24.8615 40.4776 26.232 39.3678 26.644 37.8712C27.4679 37.7535 28.7711 37.4592 30.0659 36.7025C31.8904 35.6347 34.0512 33.4571 34.3371 29.0682C37.2209 28.8917 39.5079 26.4954 39.5079 23.5695V21.1649C39.5163 18.2558 37.2462 15.8596 34.3791 15.6746ZM9.48366 27.0588H7.39013C5.46474 27.0588 3.90089 25.4949 3.90089 23.5695V21.1649C3.90089 19.2395 5.46474 17.6757 7.39013 17.6757H9.48366V27.0588ZM23.2304 38.4597H20.6996C19.8589 38.4597 19.1778 37.7787 19.1778 36.9379C19.1778 36.0971 19.8589 35.4161 20.6996 35.4161H23.2304C24.0712 35.4161 24.7522 36.0971 24.7522 36.9379C24.7522 37.7787 24.0712 38.4597 23.2304 38.4597ZM37.4984 23.5695C37.4984 25.4949 35.9346 27.0588 34.0092 27.0588H31.9156V17.6757H34.0092C35.9346 17.6757 37.4984 19.2395 37.4984 21.1649V23.5695Z" fill="#00B307"/>
</g>
<defs>
<clipPath id="clip0_1_1741">
<rect width="40.021" height="40.021" fill="white" transform="translate(0.676758 0.456543)"/>
</clipPath>
</defs>
</svg>
