<svg width="41" height="41" viewBox="0 0 41 41" fill="none" xmlns="http://www.w3.org/2000/svg">
<g clip-path="url(#clip0_1_1714)">
<path d="M32.898 26.7746C31.9201 26.7746 30.9911 27.1576 30.2903 27.8503C29.5894 28.5511 29.1983 29.4639 29.1983 30.4418C29.1983 31.4197 29.5813 32.3324 30.2903 33.0332C30.9992 33.7259 31.9201 34.1089 32.898 34.1089C34.9027 34.1089 36.5326 32.4628 36.5326 30.4418C36.5326 28.4207 34.9027 26.7746 32.898 26.7746ZM32.898 32.4791C31.7734 32.4791 30.8281 31.5501 30.8281 30.4418C30.8281 29.3335 31.7734 28.4045 32.898 28.4045C34.0063 28.4045 34.9027 29.3172 34.9027 30.4418C34.9027 31.5664 34.0063 32.4791 32.898 32.4791ZM33.8433 14.5588C33.6966 14.4203 33.5011 14.347 33.2973 14.347H29.1168C28.6685 14.347 28.3018 14.7137 28.3018 15.1619V21.8443C28.3018 22.2925 28.6685 22.6592 29.1168 22.6592H35.7503C36.1985 22.6592 36.5652 22.2925 36.5652 21.8443V17.3703C36.5652 17.1422 36.4674 16.9221 36.2963 16.7673L33.8433 14.5588ZM34.9353 21.0294H29.9317V15.9687H32.9795L34.9353 17.7289V21.0294ZM12.9975 26.7746C12.0196 26.7746 11.0906 27.1576 10.3897 27.8503C9.68891 28.5511 9.29774 29.4639 9.29774 30.4418C9.29774 31.4197 9.68076 32.3324 10.3897 33.0332C11.0987 33.7259 12.0196 34.1089 12.9975 34.1089C15.0022 34.1089 16.6321 32.4628 16.6321 30.4418C16.6321 28.4207 15.0022 26.7746 12.9975 26.7746ZM12.9975 32.4791C11.8729 32.4791 10.9276 31.5501 10.9276 30.4418C10.9276 29.3335 11.8729 28.4045 12.9975 28.4045C14.1058 28.4045 15.0022 29.3172 15.0022 30.4418C15.0022 31.5664 14.1058 32.4791 12.9975 32.4791ZM7.56195 27.777H5.92394V25.6093C5.92394 25.161 5.55723 24.7943 5.10902 24.7943C4.66081 24.7943 4.29409 25.161 4.29409 25.6093V28.5919C4.29409 29.0401 4.66081 29.4068 5.10902 29.4068H7.56195C8.01016 29.4068 8.37687 29.0401 8.37687 28.5919C8.37687 28.1437 8.01016 27.777 7.56195 27.777ZM11.6936 23.3356C11.6936 22.8874 11.3269 22.5207 10.8787 22.5207H0.993638C0.545428 22.5207 0.178711 22.8874 0.178711 23.3356C0.178711 23.7838 0.545428 24.1505 0.993638 24.1505H10.8787C11.3269 24.1505 11.6936 23.792 11.6936 23.3356ZM2.64794 20.3937L12.533 20.4508C12.9812 20.4508 13.3479 20.0922 13.3561 19.644C13.3642 19.1876 12.9975 18.8209 12.5493 18.8209L2.66424 18.7639C2.65609 18.7639 2.65609 18.7639 2.65609 18.7639C2.20788 18.7639 1.84116 19.1224 1.84116 19.5706C1.83301 20.027 2.19973 20.3937 2.64794 20.3937ZM4.31039 16.694H14.1955C14.6437 16.694 15.0104 16.3272 15.0104 15.879C15.0104 15.4308 14.6437 15.0641 14.1955 15.0641H4.31039C3.86218 15.0641 3.49546 15.4308 3.49546 15.879C3.49546 16.3272 3.86218 16.694 4.31039 16.694ZM39.8982 15.5938L34.0634 10.7613C33.9167 10.6391 33.7374 10.5739 33.5418 10.5739H26.6801V7.64012C26.6801 7.19191 26.3134 6.8252 25.8652 6.8252H5.10902C4.66081 6.8252 4.29409 7.19191 4.29409 7.64012V13.6054C4.29409 14.0536 4.66081 14.4203 5.10902 14.4203C5.55723 14.4203 5.92394 14.0536 5.92394 13.6054V8.45505H25.0584V27.777H18.376C17.9278 27.777 17.5611 28.1437 17.5611 28.5919C17.5611 29.0401 17.9278 29.4068 18.376 29.4068H28.3263C28.7745 29.4068 29.1412 29.0401 29.1412 28.5919C29.1412 28.1437 28.7745 27.777 28.3263 27.777H26.6883V12.2037H33.2566L38.5699 16.6043L38.5129 27.7607H37.6653C37.2171 27.7607 36.8504 28.1274 36.8504 28.5756C36.8504 29.0238 37.2171 29.3905 37.6653 29.3905H39.3196C39.7678 29.3905 40.1346 29.0319 40.1346 28.5837L40.1998 16.2294C40.1916 15.985 40.0857 15.7486 39.8982 15.5938Z" fill="#00B307"/>
</g>
<defs>
<clipPath id="clip0_1_1714">
<rect width="40.021" height="40.021" fill="white" transform="translate(0.178711 0.456543)"/>
</clipPath>
</defs>
</svg>
