<svg width="41" height="41" viewBox="0 0 41 41" fill="none" xmlns="http://www.w3.org/2000/svg">
<g clip-path="url(#clip0_1_1772)">
<path d="M36.1729 35.1426L33.8699 9.18811C33.8284 8.67449 33.3977 8.28513 32.8758 8.28513H28.0212C28.0129 3.96905 24.5004 0.456543 20.1843 0.456543C15.8683 0.456543 12.3558 3.96905 12.3475 8.28513H7.49292C6.9793 8.28513 6.54852 8.67449 6.49881 9.18811L4.1958 35.1426C4.1958 35.1757 4.1958 35.2005 4.1958 35.2337C4.1958 38.1249 6.85503 40.4776 10.119 40.4776H30.2497C33.5136 40.4776 36.1729 38.1249 36.1729 35.2337C36.1729 35.2005 36.1729 35.1757 36.1729 35.1426ZM20.1843 2.44475C23.4069 2.44475 26.0247 5.06257 26.033 8.28513H14.3357C14.344 5.06257 16.9618 2.44475 20.1843 2.44475ZM30.2497 38.4811H10.119C7.96512 38.4811 6.20887 37.0479 6.18401 35.2668L8.40418 10.2733H12.3475V13.761C12.3475 14.3078 12.7948 14.7551 13.3416 14.7551C13.8883 14.7551 14.3357 14.3078 14.3357 13.761V10.2733H26.033V13.761C26.033 14.3078 26.4803 14.7551 27.0271 14.7551C27.5739 14.7551 28.0212 14.3078 28.0212 13.761V10.2733H31.9645L34.1847 35.2751C34.1598 37.0479 32.4036 38.4811 30.2497 38.4811Z" fill="#00B307"/>
<path d="M24.3181 21.1506L18.4529 27.0158L16.0587 24.6216C15.6694 24.2323 15.0398 24.2323 14.6504 24.6216C14.2611 25.011 14.2611 25.6406 14.6504 26.03L17.7487 29.1283C17.9392 29.3188 18.1961 29.4182 18.4529 29.4182C18.7097 29.4182 18.9582 29.3188 19.157 29.1283L25.7264 22.5589C26.1158 22.1695 26.1158 21.5399 25.7264 21.1506C25.337 20.7695 24.7074 20.7695 24.3181 21.1506Z" fill="#00B307"/>
</g>
<defs>
<clipPath id="clip0_1_1772">
<rect width="40.021" height="40.021" fill="white" transform="translate(0.173828 0.456543)"/>
</clipPath>
</defs>
</svg>
